# xmcd
#
# Track frame offsets:
#	180
#	10456
#	21766
#	32270
#	40816
#	49738
#	60986
#	70360
#	82383
#	91989
#	102987
#	111197
#	121289
#	132287
#	141619
#	152570
#	164346
#	172724
#	182656
#	194244
#	205990
#	215512
#
# Disc length: 2993 seconds
#
# Revision: 3
# Processed by: cddbd v1.5.2PL0 Copyright (c) Steve Scherf et al.
# Submitted via: audiograbber 1.83.01
#
DISCID=3b0baf16
DTITLE=Johnny Cash and The Tennessee Two - Get Rhythm - Story Songs Of The Trains
DTITLE=And Rivers
DYEAR=1900
DGENRE=Oldies
TTITLE0=Get Rhythm
TTITLE1=Mean Eyed Cat
TTITLE2=You Win Again
TTITLE3=Country Boy
TTITLE4=Two Timin' Woman
TTITLE5=Oh, Lonesome Me
TTITLE6=Luther's Boogie
TTITLE7=Doin' My Time
TTITLE8=New Mexico
TTITLE9=Belshazah
TTITLE10=Sugartime
TTITLE11=Hey Porter
TTITLE12=Train Of Love
TTITLE13=Blue Train
TTITLE14=(I Heard That) Lonesome Whistle
TTITLE15=Port Of Lonely Hearts
TTITLE16=Wreck Of The Old '97
TTITLE17=Rock Island Line
TTITLE18=Big River
TTITLE19=Wide Open Road
TTITLE20=Down The Street To 301
TTITLE21=Life Goes On
EXTD=
EXTT0=
EXTT1=
EXTT2=
EXTT3=
EXTT4=
EXTT5=
EXTT6=
EXTT7=
EXTT8=
EXTT9=
EXTT10=
EXTT11=
EXTT12=
EXTT13=
EXTT14=
EXTT15=
EXTT16=
EXTT17=
EXTT18=
EXTT19=
EXTT20=
EXTT21=
PLAYORDER=
